<svg xmlns="http://www.w3.org/2000/svg" xmlns:xlink="http://www.w3.org/1999/xlink" width="322" height="43" viewBox="0 0 322 43"><defs><style>.a{clip-path:url(#b);}.b{fill:none;stroke:#001ff5;stroke-width:0.5px;}</style><clipPath id="b"><rect width="322" height="43"/></clipPath></defs><g id="a" class="a"><path class="b" d="M10567.685-13554.625a19.751,19.751,0,0,1-7.378-7.316,20.021,20.021,0,0,1-2.7-10.3,22.986,22.986,0,0,1,2.924-11.551,17.406,17.406,0,0,1,6.552-6.641,19.655,19.655,0,0,1,10.08-2.564,24.139,24.139,0,0,1,9.48,1.8c3.168,1.34,4.751,3.035,4.751,5.135,0,1.617-1.063,2.436-3.194,2.436H10588l-.6-.027H10587c-.575-.027-1.092-.027-1.611-.027a3.038,3.038,0,0,0-1.7.408,1.533,1.533,0,0,1-.709.219c-.437,0-.653-.219-.653-.682,0-.521.6-1.041,1.8-1.584a4.887,4.887,0,0,0,1.146-.66,1.991,1.991,0,0,0,.686-1.119q-.164-1.635-3.2-3.2a16.99,16.99,0,0,0-2.128-.93,10.715,10.715,0,0,0-3.333-.461,15.4,15.4,0,0,0-9.15,2.539,12.112,12.112,0,0,0-4.263,5.764,26.354,26.354,0,0,0-1.69,9.26,26.851,26.851,0,0,0,.543,5.053,10.052,10.052,0,0,1,3.527-5.734,12.4,12.4,0,0,1,4.453-2.242c.515-.139,1.418-.3,2.729-.492a51.061,51.061,0,0,0,6.364-1.391,1.251,1.251,0,0,1,1.391,1.391v3.25a1.117,1.117,0,0,1-1.175,1.068,6.39,6.39,0,0,1-1.722-.437,21.12,21.12,0,0,0-6.635-1.068,8.3,8.3,0,0,0-4.592,1.152,7,7,0,0,0-3.167,6.252,13.963,13.963,0,0,0,.3,2.4,18.087,18.087,0,0,0,5,6.23,17.028,17.028,0,0,0,10.767,3.549,15.827,15.827,0,0,0,10.456-3.471.945.945,0,0,1,.686-.383.58.58,0,0,1,.654.658,1.164,1.164,0,0,1-.492.793,20.412,20.412,0,0,1-13.874,5.543A19.159,19.159,0,0,1,10567.685-13554.625Zm-88.833-1.2a10.407,10.407,0,0,1-2.619-3.385,7.192,7.192,0,0,1-.819-3.084,3.64,3.64,0,0,1,1.04-2.625,4.2,4.2,0,0,1,3.113-1.174,12.848,12.848,0,0,1,1.828.217l.574.109a10.046,10.046,0,0,0,1.856.221,4.958,4.958,0,0,0,1.257-.164.782.782,0,0,1,.521-.166.864.864,0,0,1,.57.221.557.557,0,0,1,.248.436.759.759,0,0,1-.383.629,19.391,19.391,0,0,1-4.07,2.186c-1.012.465-1.527.953-1.527,1.5a5.789,5.789,0,0,0,1.91,3.932q3.482,3.688,10.3,3.688a16.482,16.482,0,0,0,6.8-1.285,10.626,10.626,0,0,0,4.808-4.2,10.454,10.454,0,0,0,1.584-5.6,9.034,9.034,0,0,0-3.356-6.771,18.048,18.048,0,0,0-6.148-3.744l-4.425-1.557-1.827-.658a56.091,56.091,0,0,1-8-3.2c-2.054-1.119-3.307-2.184-3.827-3.2a5.641,5.641,0,0,1-.547-2.488,5.528,5.528,0,0,1,2.735-4.7c1.279-.9,3.467-1.557,6.553-1.994a33.254,33.254,0,0,1,4.589-.326,27.963,27.963,0,0,1,11.066,2.049,6.784,6.784,0,0,1,2.371,1.639,3.68,3.68,0,0,1,1.1,2.482c0,1.555-1.068,2.354-3.224,2.43a.859.859,0,0,0-.271-.021l-.332-.055-.736-.084a1.329,1.329,0,0,0-.354-.027l-.793-.084a3.012,3.012,0,0,0-.436-.027,6.29,6.29,0,0,0-1.557.2.469.469,0,0,0-.139.055.6.6,0,0,1-.217.049c-.437,0-.658-.242-.658-.736a.565.565,0,0,1,.492-.6l.466-.139c1.612-.627,2.4-1.23,2.4-1.773,0-.74-.929-1.561-2.757-2.436a15.755,15.755,0,0,0-6.829-1.607,29.8,29.8,0,0,0-6.391.793c-3.826.842-5.738,2.482-5.738,4.969a2.985,2.985,0,0,0,.571,1.887c.986,1.23,3.417,2.154,7.322,2.809.464.088,1.012.166,1.666.3q5.533.981,8.2,1.723a24.6,24.6,0,0,1,9.2,4.424c3.252,2.648,4.862,5.816,4.862,9.506q0,6.759-6.39,10.432a24.189,24.189,0,0,1-12.213,2.842C10486.257-13552,10481.776-13553.285,10478.852-13555.826Zm-110.73.139a6.613,6.613,0,0,1-1.91-4.588,4.887,4.887,0,0,1,1.009-3.145,3.751,3.751,0,0,1,3.057-1.391,9.5,9.5,0,0,1,2.188.328,7.291,7.291,0,0,0,1.855.271,8.455,8.455,0,0,0,1.994-.271,1.049,1.049,0,0,1,.521-.166c.464,0,.709.275.709.791,0,.438-.354.875-1.036,1.342a6.615,6.615,0,0,1-3.606,1.012,3.208,3.208,0,0,0-2.265.875,3.1,3.1,0,0,0-.931,2.293,4.133,4.133,0,0,0,2,3.439,6.965,6.965,0,0,0,4.23,1.34,10.491,10.491,0,0,0,5.465-1.395,7.783,7.783,0,0,0,3.142-3.988,14.208,14.208,0,0,0,1.063-5.461,14.274,14.274,0,0,0-4.5-10.434,15.224,15.224,0,0,0-11.12-4.7,14.252,14.252,0,0,0-7.127,1.8c-2.216,1.23-3.307,2.9-3.307,5.023v10.246a22.429,22.429,0,0,0,.548,5.543l.41,1.395a4.038,4.038,0,0,0,.188.6,2.381,2.381,0,0,1,.193.82c0,.791-.548,1.2-1.611,1.2h-3.554c-1.227,0-1.828-.383-1.828-1.174a3.251,3.251,0,0,1,.382-1.23c.709-1.391,1.063-3.766,1.063-7.154v-19.584a27.14,27.14,0,0,0-.382-4.945l-.354-1.012a9.431,9.431,0,0,1-.545-2.461c0-1.062.6-1.605,1.828-1.605h24.368c.544,0,.819.188.819.6,0,.492-.3.736-.93.736h-18.192a7.937,7.937,0,0,0-1.7,3.09,20.022,20.022,0,0,0-.6,5.461v5.6a15.866,15.866,0,0,1,5.023-4.07,19.774,19.774,0,0,1,9.044-2.076,14.9,14.9,0,0,1,11.088,4.291,15.029,15.029,0,0,1,3.444,5.461,18.6,18.6,0,0,1,1.229,6.586,13.647,13.647,0,0,1-4.126,10.051,12.989,12.989,0,0,1-9.531,4.125A9.891,9.891,0,0,1,10368.121-13555.687Zm-75.2,1.313a4.054,4.054,0,0,1,.931-2.322,25.159,25.159,0,0,1,2.076-2.459,44.813,44.813,0,0,0,3.662-4.479,13.193,13.193,0,0,0,1.749-3.744,26.632,26.632,0,0,0,.653-6.557,19.147,19.147,0,0,0-1.557-8.467,12.074,12.074,0,0,0-6.035-5.49,16.16,16.16,0,0,0-6.8-1.34,14.456,14.456,0,0,0-4.153.492,10.056,10.056,0,0,0-4.563,3.2,8.629,8.629,0,0,0-1.229,1.861v23.953a9.218,9.218,0,0,0,.387,2.924,2.906,2.906,0,0,1,.1.326,3.811,3.811,0,0,0,.3.738,4.641,4.641,0,0,1,.547,1.473c0,.9-.709,1.367-2.131,1.367h-2.893q-1.967,0-1.966-1.391a4.283,4.283,0,0,1,.434-1.639,9.7,9.7,0,0,0,.848-3.908v-25.295a8.569,8.569,0,0,0-.737-3.33,6.222,6.222,0,0,1-.544-2.025c0-1.062.627-1.582,1.883-1.582h3.224c1.229,0,1.828.547,1.828,1.609a7.006,7.006,0,0,1-.543,2.133l-.083.166a18.378,18.378,0,0,0-.548,1.855,22.054,22.054,0,0,1,4.563-3.771,16.723,16.723,0,0,1,8.822-2.646,13.977,13.977,0,0,1,10.3,4.234,16.323,16.323,0,0,1,4.729,11.936,19.963,19.963,0,0,1-4.563,12.566l-2.541,3.2a6.058,6.058,0,0,0-.926,3.059,1.885,1.885,0,0,0,.709,1.7,4.963,4.963,0,0,0,1.611.381,11.88,11.88,0,0,1,4.724,1.855c.41.221.6.492.6.791,0,.438-.249.66-.713.66h-.134a.984.984,0,0,1-.276-.055,13.643,13.643,0,0,0-2.321-.217,28,28,0,0,0-2.868.188c-1.308.139-2.321.221-3.03.221C10294.1-13552.217,10292.919-13552.93,10292.919-13554.375Zm140.675.326a5.784,5.784,0,0,1-1.722-4.26,14.269,14.269,0,0,1,1.966-6.693c.631-1.119,1.451-2.432,2.515-3.988a25.808,25.808,0,0,0,2.021-3.391l5.981-11.684a7.277,7.277,0,0,0,.714-3.2,7.993,7.993,0,0,0-.714-2.158,4.627,4.627,0,0,1-.57-1.857c0-.818.682-1.229,2.072-1.229.574,0,1.583.051,3.007.133,1.721.139,2.979.193,3.826.193,1.229,0,2.918-.082,5.106-.275.493-.023.874-.051,1.146-.051a2.082,2.082,0,0,1,1.312.461,1.359,1.359,0,0,1,.6,1.15,5.119,5.119,0,0,1-.626,1.855,3.408,3.408,0,0,0-.327,1.475,19.322,19.322,0,0,0,1.335,5.109l8.689,24.584.244.41a7.625,7.625,0,0,0,.792,1.2,3.349,3.349,0,0,1,1.067,1.828v.193a.918.918,0,0,1-.109.488,1.294,1.294,0,0,1-1.229.848h-4.591a1.258,1.258,0,0,1-1.34-.848,1.253,1.253,0,0,1-.051-.383,2.651,2.651,0,0,1,.188-.848.446.446,0,0,0,.027-.16l.083-.193a3.2,3.2,0,0,0,.217-1.146,10.809,10.809,0,0,0-.272-2.076l-.083-.383-.027-.133-.244-.687c-.574-1.609-.9-2.508-1.008-2.7-2.054-2.648-4.318-3.988-6.75-3.988-2.211,0-4.563,1.229-7.1,3.689a75.708,75.708,0,0,0-5.162,5.814c-2.515,3.035-4.918,4.537-7.187,4.537A5.138,5.138,0,0,1,10433.594-13554.049Zm12.648-30.592a9.367,9.367,0,0,1-.657,1.119l-5.981,11.773a33.2,33.2,0,0,0-2.294,6.8,22.963,22.963,0,0,0-.792,5.326,3.219,3.219,0,0,0,2.454,3.412,4.149,4.149,0,0,0,1.152.168,3.94,3.94,0,0,0,2.563-.955,25.055,25.055,0,0,0,2.3-2.436,50.5,50.5,0,0,1,5.462-5.65q3.28-2.707,6.225-2.707a9.152,9.152,0,0,1,6.015,2.4l-5.877-17.451c-1.256-3.771-3.111-5.656-5.544-5.656C10449.328-13588.492,10447.633-13587.211,10446.242-13584.641Zm-134.72,30.592a5.78,5.78,0,0,1-1.722-4.26,14.267,14.267,0,0,1,1.965-6.693c.632-1.119,1.451-2.432,2.516-3.988a25.387,25.387,0,0,0,2.021-3.391l5.985-11.684a7.331,7.331,0,0,0,.709-3.2,7.979,7.979,0,0,0-.709-2.158,4.583,4.583,0,0,1-.574-1.857c0-.818.681-1.229,2.075-1.229.571,0,1.585.051,3,.133,1.722.139,2.979.193,3.827.193,1.229,0,2.918-.082,5.106-.275.492-.023.873-.051,1.146-.051a2.086,2.086,0,0,1,1.312.461,1.359,1.359,0,0,1,.6,1.15,5.127,5.127,0,0,1-.627,1.855,3.465,3.465,0,0,0-.326,1.475,19.361,19.361,0,0,0,1.34,5.109l8.685,24.584.243.41a8.058,8.058,0,0,0,.793,1.2,3.323,3.323,0,0,1,1.067,1.828v.193a.909.909,0,0,1-.109.488,1.294,1.294,0,0,1-1.229.848h-4.586a1.252,1.252,0,0,1-1.341-.848,1.109,1.109,0,0,1-.056-.383,2.8,2.8,0,0,1,.188-.848.432.432,0,0,0,.028-.16l.083-.193a3.14,3.14,0,0,0,.221-1.146,10.649,10.649,0,0,0-.276-2.076l-.083-.383-.022-.133-.249-.687c-.571-1.609-.9-2.508-1.009-2.7-2.048-2.648-4.317-3.988-6.744-3.988-2.216,0-4.563,1.229-7.105,3.689a75.758,75.758,0,0,0-5.161,5.814c-2.516,3.035-4.918,4.537-7.184,4.537A5.148,5.148,0,0,1,10311.522-13554.049Zm12.648-30.592a9.508,9.508,0,0,1-.658,1.119l-5.981,11.773a33.318,33.318,0,0,0-2.294,6.8,22.963,22.963,0,0,0-.792,5.326,3.219,3.219,0,0,0,2.46,3.412,4.083,4.083,0,0,0,1.146.168,3.935,3.935,0,0,0,2.564-.955,24.644,24.644,0,0,0,2.3-2.436,50.693,50.693,0,0,1,5.461-5.65q3.28-2.707,6.229-2.707a9.138,9.138,0,0,1,6.009,2.4l-5.871-17.451c-1.257-3.771-3.117-5.656-5.549-5.656C10327.257-13588.492,10325.562-13587.211,10324.171-13584.641Zm207.81,31.738c-1.119,0-1.662-.488-1.662-1.445a2.979,2.979,0,0,1,.354-1.285,14.135,14.135,0,0,0,.736-1.666,13,13,0,0,0,.52-4.043v-23.189a7.228,7.228,0,0,0-.93-3.715,4.678,4.678,0,0,0-4.4-2.488h-1.89a7.176,7.176,0,0,0-5.267,1.779,3.933,3.933,0,0,0-1.123,2.895c0,1.939.874,4.121,2.624,6.58a9.755,9.755,0,0,1,2.132,5.549.645.645,0,0,1-.737.709c-.386,0-.574-.221-.6-.686a7.217,7.217,0,0,0-1.063-3.523,14.685,14.685,0,0,0-2.9-3.057q-4.1-3.521-4.1-7.049a4.168,4.168,0,0,1,1.827-3.523,5.384,5.384,0,0,1,3.279-1.008h30.62a5.314,5.314,0,0,1,3.5,1.174,4.169,4.169,0,0,1,1.61,3.357c0,2.354-1.367,4.7-4.07,7.049a14.146,14.146,0,0,0-2.924,3.057,7.2,7.2,0,0,0-1.067,3.523c-.023.465-.218.686-.6.686a.643.643,0,0,1-.735-.709,10.3,10.3,0,0,1,2.319-5.82,11.22,11.22,0,0,0,2.433-6.336,3.871,3.871,0,0,0-.737-2.4c-1.1-1.5-2.979-2.242-5.654-2.242h-1.884a4.673,4.673,0,0,0-4.4,2.488,7.19,7.19,0,0,0-.93,3.715v23.189a12.653,12.653,0,0,0,.52,4.043c.135.381.383.93.737,1.666a3,3,0,0,1,.354,1.313c0,.959-.549,1.418-1.666,1.418Zm-136.028,0a2.689,2.689,0,0,1-1.662-.543,1.547,1.547,0,0,1-.632-1.258,3.691,3.691,0,0,1,.493-1.832,12.282,12.282,0,0,0,.9-4.48v-24.092a8.707,8.707,0,0,0-.521-2.238l-.055-.219a8.228,8.228,0,0,1-.437-2.238,1.973,1.973,0,0,1,.931-1.885,3.653,3.653,0,0,1,1.721-.357c.244-.027,2.05-.027,5.378-.027h10.656c.953,0,2.1,0,3.494-.023a12.109,12.109,0,0,1,5.057.709,3.485,3.485,0,0,1,2.375,3.25,5.284,5.284,0,0,1-1.5,3.85,25.267,25.267,0,0,1-7.728,5.383,34.912,34.912,0,0,1,3.274,1.666,24.8,24.8,0,0,1,6.828,5.789,15.149,15.149,0,0,1,3.716,9.643,8.6,8.6,0,0,1-2.431,6.283,9.1,9.1,0,0,1-6.8,2.621Zm3.306-8.164q0,5.525,5.083,6.824h13.026a9.06,9.06,0,0,0,4.016-2.51,8.093,8.093,0,0,0,1.776-5.326,17.741,17.741,0,0,0-1.583-7.074,15.931,15.931,0,0,0-8.988-9.1c-2.924-1.174-7.376-1.91-13.33-2.211Zm.056-23.818v3.084c2.785.139,5.055.355,6.772.6a40.394,40.394,0,0,1,6.475,1.563,16.824,16.824,0,0,0,5.875-3.225,6.881,6.881,0,0,0,1.2-3.576,3.631,3.631,0,0,0-1.557-2.979,6.773,6.773,0,0,0-1.561-.82,5.9,5.9,0,0,0-2.155-.494h-9.452C10401.8-13590.734,10399.943-13588.795,10399.313-13584.885Z" transform="translate(-10270.998 13594)"/></g></svg>