<svg xmlns="http://www.w3.org/2000/svg" xmlns:xlink="http://www.w3.org/1999/xlink" width="158.256" height="22" viewBox="0 0 158.256 22"><defs><style>.a{clip-path:url(#b);}.b{fill:#0505ff;stroke:#001ff5;stroke-width:0.5px;}</style><clipPath id="b"><rect width="158.256" height="22"/></clipPath></defs><g id="a" class="a"><path class="b" d="M10416.244-13574.278a9.632,9.632,0,0,1-3.6-3.569,9.762,9.762,0,0,1-1.318-5.025,11.215,11.215,0,0,1,1.427-5.635,8.486,8.486,0,0,1,3.2-3.238,9.582,9.582,0,0,1,4.917-1.252,11.774,11.774,0,0,1,4.625.878c1.546.653,2.317,1.48,2.317,2.5,0,.789-.519,1.188-1.559,1.188h-.094l-.293-.013h-.2c-.281-.013-.533-.013-.786-.013a1.488,1.488,0,0,0-.827.2.753.753,0,0,1-.346.106c-.213,0-.318-.106-.318-.332,0-.254.291-.508.878-.773a2.334,2.334,0,0,0,.56-.321.966.966,0,0,0,.334-.546q-.079-.8-1.561-1.559a8.291,8.291,0,0,0-1.037-.453,5.213,5.213,0,0,0-1.627-.226,7.5,7.5,0,0,0-4.463,1.239,5.908,5.908,0,0,0-2.08,2.811,12.863,12.863,0,0,0-.824,4.518,13.1,13.1,0,0,0,.265,2.465,4.9,4.9,0,0,1,1.721-2.8,6.023,6.023,0,0,1,2.173-1.094,13.161,13.161,0,0,1,1.331-.24,24.85,24.85,0,0,0,3.1-.679.61.61,0,0,1,.678.679v1.585a.544.544,0,0,1-.572.521,3.082,3.082,0,0,1-.84-.214,10.313,10.313,0,0,0-3.236-.521,4.047,4.047,0,0,0-2.24.563,3.418,3.418,0,0,0-1.545,3.051,6.762,6.762,0,0,0,.147,1.172,8.822,8.822,0,0,0,2.437,3.04,8.312,8.312,0,0,0,5.253,1.731,7.722,7.722,0,0,0,5.1-1.693.461.461,0,0,1,.334-.187.284.284,0,0,1,.32.322.571.571,0,0,1-.24.387,9.963,9.963,0,0,1-6.769,2.7A9.337,9.337,0,0,1,10416.244-13574.278Zm-43.336-.586a5.079,5.079,0,0,1-1.277-1.651,3.513,3.513,0,0,1-.4-1.5,1.779,1.779,0,0,1,.508-1.281,2.053,2.053,0,0,1,1.52-.572,6.286,6.286,0,0,1,.891.105l.281.054a4.916,4.916,0,0,0,.905.107,2.433,2.433,0,0,0,.612-.079.382.382,0,0,1,.255-.082.427.427,0,0,1,.278.107.273.273,0,0,1,.121.213.37.37,0,0,1-.187.307,9.463,9.463,0,0,1-1.985,1.066c-.494.227-.746.465-.746.732a2.825,2.825,0,0,0,.933,1.918,6.589,6.589,0,0,0,5.022,1.8,8.033,8.033,0,0,0,3.317-.627,5.175,5.175,0,0,0,2.345-2.05,5.092,5.092,0,0,0,.773-2.731,4.41,4.41,0,0,0-1.637-3.3,8.823,8.823,0,0,0-3-1.827l-2.158-.759-.892-.321a27.262,27.262,0,0,1-3.9-1.559,4.412,4.412,0,0,1-1.866-1.559,2.741,2.741,0,0,1-.268-1.214,2.7,2.7,0,0,1,1.334-2.29,7.694,7.694,0,0,1,3.2-.973,16.112,16.112,0,0,1,2.238-.16,13.639,13.639,0,0,1,5.4,1,3.3,3.3,0,0,1,1.156.8,1.8,1.8,0,0,1,.535,1.211c0,.759-.521,1.148-1.572,1.186a.453.453,0,0,0-.133-.01l-.162-.027-.359-.041a.626.626,0,0,0-.172-.014l-.388-.041a1.539,1.539,0,0,0-.212-.013,3.086,3.086,0,0,0-.76.095.218.218,0,0,0-.067.027.286.286,0,0,1-.106.023c-.213,0-.32-.118-.32-.359a.275.275,0,0,1,.24-.291l.227-.068c.787-.3,1.172-.6,1.172-.865,0-.36-.453-.761-1.345-1.187a7.679,7.679,0,0,0-3.331-.784,14.5,14.5,0,0,0-3.117.387c-1.867.411-2.8,1.211-2.8,2.424a1.46,1.46,0,0,0,.278.921c.481.6,1.668,1.051,3.572,1.369.227.043.494.082.813.149q2.7.479,4,.841a11.973,11.973,0,0,1,4.49,2.158,5.8,5.8,0,0,1,2.373,4.637,5.6,5.6,0,0,1-3.117,5.089,11.808,11.808,0,0,1-5.959,1.386C10376.521-13573,10374.336-13573.625,10372.908-13574.864Zm-54.018.067a3.226,3.226,0,0,1-.932-2.238,2.385,2.385,0,0,1,.492-1.533,1.832,1.832,0,0,1,1.491-.679,4.6,4.6,0,0,1,1.067.16,3.539,3.539,0,0,0,.905.132,4.1,4.1,0,0,0,.973-.132.509.509,0,0,1,.254-.081c.226,0,.346.135.346.386,0,.214-.173.427-.5.655a3.237,3.237,0,0,1-1.76.493,1.566,1.566,0,0,0-1.105.427,1.513,1.513,0,0,0-.453,1.119,2.016,2.016,0,0,0,.973,1.678,3.4,3.4,0,0,0,2.064.653,5.124,5.124,0,0,0,2.666-.681,3.792,3.792,0,0,0,1.532-1.945,6.936,6.936,0,0,0,.519-2.664,6.963,6.963,0,0,0-2.2-5.09,7.423,7.423,0,0,0-5.424-2.293,6.954,6.954,0,0,0-3.478.88,2.716,2.716,0,0,0-1.612,2.45v5a10.957,10.957,0,0,0,.267,2.7l.2.68a1.909,1.909,0,0,0,.092.293,1.144,1.144,0,0,1,.095.4c0,.386-.268.586-.786.586h-1.734c-.6,0-.891-.187-.891-.572a1.585,1.585,0,0,1,.186-.6,8.318,8.318,0,0,0,.52-3.489v-9.554a13.21,13.21,0,0,0-.187-2.412l-.172-.494a4.554,4.554,0,0,1-.266-1.2c0-.519.292-.783.891-.783h11.889c.265,0,.4.091.4.292,0,.239-.147.358-.453.358h-8.875a3.858,3.858,0,0,0-.826,1.507,9.752,9.752,0,0,0-.293,2.664v2.732a7.753,7.753,0,0,1,2.451-1.986,9.654,9.654,0,0,1,4.412-1.012,7.263,7.263,0,0,1,5.408,2.093,7.315,7.315,0,0,1,1.681,2.664,9.072,9.072,0,0,1,.6,3.213,6.659,6.659,0,0,1-2.014,4.9,6.337,6.337,0,0,1-4.649,2.012A4.828,4.828,0,0,1,10318.891-13574.8Zm-36.686.641a1.973,1.973,0,0,1,.455-1.133,12.175,12.175,0,0,1,1.012-1.2,21.964,21.964,0,0,0,1.787-2.186,6.453,6.453,0,0,0,.854-1.826,13.018,13.018,0,0,0,.318-3.2,9.33,9.33,0,0,0-.76-4.13,5.888,5.888,0,0,0-2.943-2.679,7.884,7.884,0,0,0-3.318-.653,7.016,7.016,0,0,0-2.026.24,4.89,4.89,0,0,0-2.226,1.559,4.158,4.158,0,0,0-.6.908v11.684a4.5,4.5,0,0,0,.188,1.428,1.541,1.541,0,0,1,.051.158,1.767,1.767,0,0,0,.147.36,2.277,2.277,0,0,1,.266.718c0,.441-.346.668-1.039.668h-1.411q-.959,0-.959-.679a2.09,2.09,0,0,1,.212-.8,4.743,4.743,0,0,0,.413-1.906v-12.34a4.194,4.194,0,0,0-.359-1.624,3.037,3.037,0,0,1-.266-.988c0-.519.306-.771.919-.771h1.572c.6,0,.892.267.892.785a3.416,3.416,0,0,1-.265,1.04l-.041.081a9.032,9.032,0,0,0-.267.905,10.78,10.78,0,0,1,2.226-1.84,8.157,8.157,0,0,1,4.3-1.291,6.819,6.819,0,0,1,5.022,2.065,7.962,7.962,0,0,1,2.307,5.823,9.735,9.735,0,0,1-2.226,6.13l-1.239,1.559a2.945,2.945,0,0,0-.451,1.492.918.918,0,0,0,.346.827,2.411,2.411,0,0,0,.785.186,5.8,5.8,0,0,1,2.3.905c.2.107.295.24.295.386,0,.213-.122.322-.348.322h-.066a.473.473,0,0,1-.135-.027,6.672,6.672,0,0,0-1.132-.105,13.484,13.484,0,0,0-1.4.092c-.638.067-1.133.107-1.479.107C10282.781-13573.1,10282.205-13573.451,10282.205-13574.156Zm68.625.159a2.825,2.825,0,0,1-.84-2.078,6.96,6.96,0,0,1,.959-3.265c.309-.547.709-1.187,1.227-1.946a12.642,12.642,0,0,0,.986-1.653l2.918-5.7a3.553,3.553,0,0,0,.348-1.56,3.852,3.852,0,0,0-.348-1.053,2.255,2.255,0,0,1-.278-.906c0-.4.333-.6,1.011-.6.28,0,.772.025,1.467.064.84.068,1.453.095,1.867.095.6,0,1.423-.04,2.49-.134.24-.012.427-.025.56-.025a1.015,1.015,0,0,1,.64.225.665.665,0,0,1,.292.562,2.483,2.483,0,0,1-.306.905,1.671,1.671,0,0,0-.159.719,9.43,9.43,0,0,0,.651,2.493l4.238,11.993.119.2a3.736,3.736,0,0,0,.387.586,1.637,1.637,0,0,1,.521.893v.094a.446.446,0,0,1-.054.238.632.632,0,0,1-.6.414h-2.238a.614.614,0,0,1-.654-.414.6.6,0,0,1-.025-.187,1.3,1.3,0,0,1,.093-.413.229.229,0,0,0,.013-.078l.041-.095a1.55,1.55,0,0,0,.105-.56,5.206,5.206,0,0,0-.133-1.013l-.041-.187-.013-.064-.119-.336c-.28-.785-.439-1.223-.491-1.317a4.237,4.237,0,0,0-3.293-1.946,5.217,5.217,0,0,0-3.463,1.8,36.762,36.762,0,0,0-2.52,2.836c-1.227,1.48-2.4,2.213-3.506,2.213A2.51,2.51,0,0,1,10350.83-13574Zm6.171-14.924a4.592,4.592,0,0,1-.321.546l-2.918,5.744a16.193,16.193,0,0,0-1.119,3.317,11.2,11.2,0,0,0-.386,2.6,1.57,1.57,0,0,0,1.2,1.664,2.009,2.009,0,0,0,.562.082,1.92,1.92,0,0,0,1.251-.467,11.929,11.929,0,0,0,1.121-1.187,24.568,24.568,0,0,1,2.665-2.756,4.879,4.879,0,0,1,3.036-1.321,4.471,4.471,0,0,1,2.935,1.173l-2.867-8.514q-.92-2.76-2.705-2.759C10358.506-13590.8,10357.68-13590.174,10357-13588.921Zm-65.72,14.924a2.817,2.817,0,0,1-.84-2.078,6.958,6.958,0,0,1,.958-3.265c.308-.547.708-1.187,1.228-1.946a12.533,12.533,0,0,0,.985-1.653l2.92-5.7a3.567,3.567,0,0,0,.346-1.56,3.914,3.914,0,0,0-.346-1.053,2.233,2.233,0,0,1-.28-.906c0-.4.332-.6,1.012-.6.279,0,.773.025,1.465.064.84.068,1.454.095,1.867.095.6,0,1.424-.04,2.492-.134.239-.012.426-.025.559-.025a1.017,1.017,0,0,1,.64.225.665.665,0,0,1,.292.562,2.5,2.5,0,0,1-.306.905,1.686,1.686,0,0,0-.159.719,9.4,9.4,0,0,0,.654,2.493l4.236,11.993.118.2a3.885,3.885,0,0,0,.387.586,1.615,1.615,0,0,1,.521.893v.094a.437.437,0,0,1-.053.238.631.631,0,0,1-.6.414h-2.237a.611.611,0,0,1-.654-.414.557.557,0,0,1-.027-.187,1.352,1.352,0,0,1,.093-.413.214.214,0,0,0,.014-.078l.04-.095a1.53,1.53,0,0,0,.107-.56,5.166,5.166,0,0,0-.135-1.013l-.04-.187-.012-.064-.121-.336c-.279-.785-.439-1.223-.492-1.317a4.229,4.229,0,0,0-3.29-1.946,5.225,5.225,0,0,0-3.466,1.8,36.647,36.647,0,0,0-2.518,2.836c-1.228,1.48-2.4,2.213-3.5,2.213A2.509,2.509,0,0,1,10291.281-13574Zm6.17-14.924a4.592,4.592,0,0,1-.321.546l-2.918,5.744a16.313,16.313,0,0,0-1.119,3.317,11.2,11.2,0,0,0-.386,2.6,1.571,1.571,0,0,0,1.2,1.664,1.98,1.98,0,0,0,.56.082,1.917,1.917,0,0,0,1.251-.467,11.578,11.578,0,0,0,1.121-1.187,24.756,24.756,0,0,1,2.664-2.756,4.882,4.882,0,0,1,3.039-1.321,4.464,4.464,0,0,1,2.932,1.173l-2.864-8.514c-.613-1.84-1.521-2.759-2.707-2.759C10298.957-13590.8,10298.129-13590.174,10297.451-13588.921Zm101.375,15.483c-.546,0-.811-.238-.811-.705a1.451,1.451,0,0,1,.173-.627,6.922,6.922,0,0,0,.359-.812,6.351,6.351,0,0,0,.253-1.973v-11.312a3.533,3.533,0,0,0-.453-1.812,2.282,2.282,0,0,0-2.145-1.214h-.922a3.5,3.5,0,0,0-2.569.868,1.916,1.916,0,0,0-.548,1.412,5.748,5.748,0,0,0,1.279,3.21,4.755,4.755,0,0,1,1.041,2.707.315.315,0,0,1-.359.346c-.189,0-.281-.108-.295-.335a3.519,3.519,0,0,0-.519-1.719,7.147,7.147,0,0,0-1.413-1.49,4.719,4.719,0,0,1-2-3.439,2.032,2.032,0,0,1,.891-1.719,2.63,2.63,0,0,1,1.6-.491h14.938a2.59,2.59,0,0,1,1.707.572,2.033,2.033,0,0,1,.786,1.638,4.75,4.75,0,0,1-1.985,3.439,6.911,6.911,0,0,0-1.427,1.49,3.511,3.511,0,0,0-.521,1.719c-.012.227-.106.335-.293.335a.313.313,0,0,1-.358-.346,5.018,5.018,0,0,1,1.132-2.839,5.477,5.477,0,0,0,1.186-3.092,1.888,1.888,0,0,0-.359-1.173,3.191,3.191,0,0,0-2.758-1.094h-.919a2.28,2.28,0,0,0-2.146,1.214,3.514,3.514,0,0,0-.453,1.813v11.313a6.178,6.178,0,0,0,.253,1.973c.065.186.187.453.36.813a1.466,1.466,0,0,1,.172.641c0,.467-.268.691-.812.691Zm-66.358,0a1.307,1.307,0,0,1-.811-.266.752.752,0,0,1-.309-.613,1.8,1.8,0,0,1,.241-.894,6.011,6.011,0,0,0,.44-2.186v-11.753a4.241,4.241,0,0,0-.255-1.092l-.026-.107a4.039,4.039,0,0,1-.214-1.092.961.961,0,0,1,.455-.919,1.784,1.784,0,0,1,.839-.175c.119-.013,1-.013,2.624-.013h5.2c.465,0,1.025,0,1.705-.012a5.891,5.891,0,0,1,2.467.347,1.7,1.7,0,0,1,1.158,1.585,2.578,2.578,0,0,1-.734,1.878,12.307,12.307,0,0,1-3.77,2.625,17.27,17.27,0,0,1,1.6.813,12.074,12.074,0,0,1,3.331,2.824,7.385,7.385,0,0,1,1.813,4.7,4.2,4.2,0,0,1-1.186,3.064,4.434,4.434,0,0,1-3.317,1.279Zm1.612-3.982a3.077,3.077,0,0,0,2.48,3.328h6.354a4.409,4.409,0,0,0,1.959-1.225,3.944,3.944,0,0,0,.867-2.6,8.676,8.676,0,0,0-.771-3.451,7.778,7.778,0,0,0-4.385-4.437,21.48,21.48,0,0,0-6.5-1.079Zm.027-11.619v1.5c1.359.067,2.466.174,3.3.291a19.669,19.669,0,0,1,3.158.763,8.209,8.209,0,0,0,2.865-1.573,3.356,3.356,0,0,0,.587-1.744,1.771,1.771,0,0,0-.759-1.453,3.345,3.345,0,0,0-.762-.4,2.879,2.879,0,0,0-1.052-.241h-4.61C10335.32-13591.894,10334.415-13590.947,10334.107-13589.039Z" transform="translate(-10270.998 13594)"/></g></svg>